<mxfile host="www.draw.io" modified="2023-03-29T17:02:58.407Z" agent="Mozilla/5.0 (Windows NT 10.0; Win64; x64) AppleWebKit/537.36 (KHTML, like Gecko) Chrome/111.0.0.0 Safari/537.36" etag="8UGPC2FPNDokiW3a-IZc" version="21.1.2" type="device">
  <diagram name="第 1 页" id="CIuS55XePK5YUHTQaCGy">
    <mxGraphModel dx="1221" dy="636" grid="0" gridSize="10" guides="1" tooltips="1" connect="1" arrows="1" fold="1" page="1" pageScale="1" pageWidth="827" pageHeight="1169" math="0" shadow="0">
      <root>
        <mxCell id="0" />
        <mxCell id="1" parent="0" />
        <mxCell id="UXNFSAjx0o0YqGP9Mnx8-3" value="" style="rounded=1;whiteSpace=wrap;html=1;" parent="1" vertex="1">
          <mxGeometry x="218" y="259" width="256" height="75" as="geometry" />
        </mxCell>
        <mxCell id="UXNFSAjx0o0YqGP9Mnx8-1" value="&lt;font style=&quot;font-size: 18px;&quot;&gt;QAM Modulator&lt;/font&gt;" style="rounded=1;whiteSpace=wrap;html=1;" parent="1" vertex="1">
          <mxGeometry x="234" y="277.13" width="140" height="36.87" as="geometry" />
        </mxCell>
        <mxCell id="UXNFSAjx0o0YqGP9Mnx8-9" style="edgeStyle=orthogonalEdgeStyle;rounded=0;orthogonalLoop=1;jettySize=auto;html=1;entryX=0.5;entryY=0;entryDx=0;entryDy=0;exitX=1;exitY=0.5;exitDx=0;exitDy=0;" parent="1" source="UXNFSAjx0o0YqGP9Mnx8-3" target="UXNFSAjx0o0YqGP9Mnx8-8" edge="1">
          <mxGeometry relative="1" as="geometry">
            <mxPoint x="474" y="299" as="sourcePoint" />
            <Array as="points">
              <mxPoint x="474" y="294" />
              <mxPoint x="564" y="294" />
            </Array>
          </mxGeometry>
        </mxCell>
        <mxCell id="UXNFSAjx0o0YqGP9Mnx8-2" value="&lt;font style=&quot;font-size: 18px;&quot;&gt;IFFT&lt;/font&gt;" style="rounded=1;whiteSpace=wrap;html=1;" parent="1" vertex="1">
          <mxGeometry x="394" y="277.75" width="60" height="36.25" as="geometry" />
        </mxCell>
        <mxCell id="UXNFSAjx0o0YqGP9Mnx8-5" value="&lt;span style=&quot;font-size: 24px;&quot;&gt;&lt;b&gt;Transmitter&lt;/b&gt;&lt;/span&gt;" style="text;html=1;strokeColor=none;fillColor=none;align=center;verticalAlign=middle;whiteSpace=wrap;rounded=0;" parent="1" vertex="1">
          <mxGeometry x="256" y="204" width="180" height="40" as="geometry" />
        </mxCell>
        <mxCell id="UXNFSAjx0o0YqGP9Mnx8-7" style="edgeStyle=orthogonalEdgeStyle;rounded=0;orthogonalLoop=1;jettySize=auto;html=1;entryX=0;entryY=0.5;entryDx=0;entryDy=0;" parent="1" source="UXNFSAjx0o0YqGP9Mnx8-6" target="UXNFSAjx0o0YqGP9Mnx8-3" edge="1">
          <mxGeometry relative="1" as="geometry" />
        </mxCell>
        <mxCell id="UXNFSAjx0o0YqGP9Mnx8-6" value="&lt;font style=&quot;font-size: 18px;&quot;&gt;TX signal&lt;/font&gt;" style="ellipse;whiteSpace=wrap;html=1;aspect=fixed;" parent="1" vertex="1">
          <mxGeometry x="94" y="256.5" width="80" height="80" as="geometry" />
        </mxCell>
        <mxCell id="UXNFSAjx0o0YqGP9Mnx8-14" style="edgeStyle=orthogonalEdgeStyle;rounded=0;orthogonalLoop=1;jettySize=auto;html=1;exitX=0.5;exitY=1;exitDx=0;exitDy=0;entryX=1;entryY=0.5;entryDx=0;entryDy=0;" parent="1" source="UXNFSAjx0o0YqGP9Mnx8-8" target="UXNFSAjx0o0YqGP9Mnx8-10" edge="1">
          <mxGeometry relative="1" as="geometry" />
        </mxCell>
        <mxCell id="UXNFSAjx0o0YqGP9Mnx8-8" value="&lt;font style=&quot;font-size: 18px;&quot;&gt;AWGN&lt;/font&gt;" style="rounded=1;whiteSpace=wrap;html=1;" parent="1" vertex="1">
          <mxGeometry x="504" y="344" width="120" height="60" as="geometry" />
        </mxCell>
        <mxCell id="UXNFSAjx0o0YqGP9Mnx8-16" style="edgeStyle=orthogonalEdgeStyle;rounded=0;orthogonalLoop=1;jettySize=auto;html=1;exitX=0;exitY=0.5;exitDx=0;exitDy=0;entryX=1;entryY=0.5;entryDx=0;entryDy=0;" parent="1" source="UXNFSAjx0o0YqGP9Mnx8-10" target="UXNFSAjx0o0YqGP9Mnx8-15" edge="1">
          <mxGeometry relative="1" as="geometry" />
        </mxCell>
        <mxCell id="UXNFSAjx0o0YqGP9Mnx8-10" value="" style="rounded=1;whiteSpace=wrap;html=1;" parent="1" vertex="1">
          <mxGeometry x="218" y="427.76" width="256" height="75" as="geometry" />
        </mxCell>
        <mxCell id="UXNFSAjx0o0YqGP9Mnx8-11" value="&lt;font style=&quot;font-size: 18px;&quot;&gt;QAM Demodulator&lt;/font&gt;" style="rounded=1;whiteSpace=wrap;html=1;" parent="1" vertex="1">
          <mxGeometry x="234" y="446.51" width="160" height="36.87" as="geometry" />
        </mxCell>
        <mxCell id="UXNFSAjx0o0YqGP9Mnx8-12" value="&lt;font style=&quot;font-size: 18px;&quot;&gt;FFT&lt;/font&gt;" style="rounded=1;whiteSpace=wrap;html=1;" parent="1" vertex="1">
          <mxGeometry x="404" y="447.13" width="60" height="36.25" as="geometry" />
        </mxCell>
        <mxCell id="UXNFSAjx0o0YqGP9Mnx8-13" value="&lt;font style=&quot;font-size: 24px;&quot;&gt;&lt;b&gt;Receiver&lt;/b&gt;&lt;/font&gt;" style="text;html=1;strokeColor=none;fillColor=none;align=center;verticalAlign=middle;whiteSpace=wrap;rounded=0;" parent="1" vertex="1">
          <mxGeometry x="256" y="514" width="180" height="40" as="geometry" />
        </mxCell>
        <mxCell id="UXNFSAjx0o0YqGP9Mnx8-15" value="&lt;span style=&quot;font-size: 18px;&quot;&gt;RX signal&lt;/span&gt;" style="ellipse;whiteSpace=wrap;html=1;aspect=fixed;" parent="1" vertex="1">
          <mxGeometry x="94" y="425.26" width="80" height="80" as="geometry" />
        </mxCell>
        <mxCell id="4EG-T_L_lF-We37W6j-U-2" value="&lt;span style=&quot;font-size: 24px;&quot;&gt;&lt;b&gt;Channel&lt;/b&gt;&lt;/span&gt;" style="text;html=1;strokeColor=none;fillColor=none;align=center;verticalAlign=middle;whiteSpace=wrap;rounded=0;" vertex="1" parent="1">
          <mxGeometry x="601" y="354" width="180" height="40" as="geometry" />
        </mxCell>
      </root>
    </mxGraphModel>
  </diagram>
</mxfile>
